<svg id="visual" viewBox="0 0 1400 540" width="1400" height="540" xmlns="http://www.w3.org/2000/svg" xmlns:xlink="http://www.w3.org/1999/xlink" version="1.1"><path d="M0 104L23.3 107.5C46.7 111 93.3 118 140 116.2C186.7 114.3 233.3 103.7 280 99.2C326.7 94.7 373.3 96.3 420 102.7C466.7 109 513.3 120 560 127.2C606.7 134.3 653.3 137.7 700 136.7C746.7 135.7 793.3 130.3 840 122.3C886.7 114.3 933.3 103.7 980 106.3C1026.7 109 1073.3 125 1120 126.8C1166.7 128.7 1213.3 116.3 1260 105.7C1306.7 95 1353.3 86 1376.7 81.5L1400 77L1400 0L1376.7 0C1353.3 0 1306.7 0 1260 0C1213.3 0 1166.7 0 1120 0C1073.3 0 1026.7 0 980 0C933.3 0 886.7 0 840 0C793.3 0 746.7 0 700 0C653.3 0 606.7 0 560 0C513.3 0 466.7 0 420 0C373.3 0 326.7 0 280 0C233.3 0 186.7 0 140 0C93.3 0 46.7 0 23.3 0L0 0Z" fill="#c98474"></path><path d="M0 179L23.3 187.2C46.7 195.3 93.3 211.7 140 210.8C186.7 210 233.3 192 280 184.8C326.7 177.7 373.3 181.3 420 187.7C466.7 194 513.3 203 560 210.2C606.7 217.3 653.3 222.7 700 219.8C746.7 217 793.3 206 840 193.3C886.7 180.7 933.3 166.3 980 171.8C1026.7 177.3 1073.3 202.7 1120 207.2C1166.7 211.7 1213.3 195.3 1260 186.3C1306.7 177.3 1353.3 175.7 1376.7 174.8L1400 174L1400 75L1376.7 79.5C1353.3 84 1306.7 93 1260 103.7C1213.3 114.3 1166.7 126.7 1120 124.8C1073.3 123 1026.7 107 980 104.3C933.3 101.7 886.7 112.3 840 120.3C793.3 128.3 746.7 133.7 700 134.7C653.3 135.7 606.7 132.3 560 125.2C513.3 118 466.7 107 420 100.7C373.3 94.3 326.7 92.7 280 97.2C233.3 101.7 186.7 112.3 140 114.2C93.3 116 46.7 109 23.3 105.5L0 102Z" fill="#db9c88"></path><path d="M0 320L23.3 324.5C46.7 329 93.3 338 140 342.5C186.7 347 233.3 347 280 349.7C326.7 352.3 373.3 357.7 420 365.7C466.7 373.7 513.3 384.3 560 382.5C606.7 380.7 653.3 366.3 700 355.5C746.7 344.7 793.3 337.3 840 326.5C886.7 315.7 933.3 301.3 980 308.7C1026.7 316 1073.3 345 1120 360.3C1166.7 375.7 1213.3 377.3 1260 368.3C1306.7 359.3 1353.3 339.7 1376.7 329.8L1400 320L1400 172L1376.7 172.8C1353.3 173.7 1306.7 175.3 1260 184.3C1213.3 193.3 1166.7 209.7 1120 205.2C1073.3 200.7 1026.7 175.3 980 169.8C933.3 164.3 886.7 178.7 840 191.3C793.3 204 746.7 215 700 217.8C653.3 220.7 606.7 215.3 560 208.2C513.3 201 466.7 192 420 185.7C373.3 179.3 326.7 175.7 280 182.8C233.3 190 186.7 208 140 208.8C93.3 209.7 46.7 193.3 23.3 185.2L0 177Z" fill="#edb49d"></path><path d="M0 541L23.3 541C46.7 541 93.3 541 140 541C186.7 541 233.3 541 280 541C326.7 541 373.3 541 420 541C466.7 541 513.3 541 560 541C606.7 541 653.3 541 700 541C746.7 541 793.3 541 840 541C886.7 541 933.3 541 980 541C1026.7 541 1073.3 541 1120 541C1166.7 541 1213.3 541 1260 541C1306.7 541 1353.3 541 1376.7 541L1400 541L1400 318L1376.7 327.8C1353.3 337.7 1306.7 357.3 1260 366.3C1213.3 375.3 1166.7 373.7 1120 358.3C1073.3 343 1026.7 314 980 306.7C933.3 299.3 886.7 313.7 840 324.5C793.3 335.3 746.7 342.7 700 353.5C653.3 364.3 606.7 378.7 560 380.5C513.3 382.3 466.7 371.7 420 363.7C373.3 355.7 326.7 350.3 280 347.7C233.3 345 186.7 345 140 340.5C93.3 336 46.7 327 23.3 322.5L0 318Z" fill="#ffccb3"></path></svg>