<!-- <svg id="visual" viewBox="0 0 960 540" xmlns="http://www.w3.org/2000/svg" xmlns:xlink="http://www.w3.org/1999/xlink" version="1.1"><path d="M0 131L14.5 144.5C29 158 58 185 87.2 178.7C116.3 172.3 145.7 132.7 174.8 124.5C204 116.3 233 139.7 262 138.7C291 137.7 320 112.3 349 106C378 99.7 407 112.3 436.2 125C465.3 137.7 494.7 150.3 523.8 145.8C553 141.3 582 119.7 611 123.3C640 127 669 156 698 160.5C727 165 756 145 785.2 154C814.3 163 843.7 201 872.8 220.8C902 240.7 931 242.3 945.5 243.2L960 244L960 0L945.5 0C931 0 902 0 872.8 0C843.7 0 814.3 0 785.2 0C756 0 727 0 698 0C669 0 640 0 611 0C582 0 553 0 523.8 0C494.7 0 465.3 0 436.2 0C407 0 378 0 349 0C320 0 291 0 262 0C233 0 204 0 174.8 0C145.7 0 116.3 0 87.2 0C58 0 29 0 14.5 0L0 0Z" fill="#dca99e"></path><path d="M0 309L14.5 318.8C29 328.7 58 348.3 87.2 345.7C116.3 343 145.7 318 174.8 311.7C204 305.3 233 317.7 262 316.7C291 315.7 320 301.3 349 295.2C378 289 407 291 436.2 291C465.3 291 494.7 289 523.8 295.2C553 301.3 582 315.7 611 311.2C640 306.7 669 283.3 698 272.7C727 262 756 264 785.2 277.5C814.3 291 843.7 316 872.8 328.5C902 341 931 341 945.5 341L960 341L960 242L945.5 241.2C931 240.3 902 238.7 872.8 218.8C843.7 199 814.3 161 785.2 152C756 143 727 163 698 158.5C669 154 640 125 611 121.3C582 117.7 553 139.3 523.8 143.8C494.7 148.3 465.3 135.7 436.2 123C407 110.3 378 97.7 349 104C320 110.3 291 135.7 262 136.7C233 137.7 204 114.3 174.8 122.5C145.7 130.7 116.3 170.3 87.2 176.7C58 183 29 156 14.5 142.5L0 129Z" fill="#d39689"></path><path d="M0 374L14.5 379.3C29 384.7 58 395.3 87.2 393.5C116.3 391.7 145.7 377.3 174.8 371C204 364.7 233 366.3 262 360C291 353.7 320 339.3 349 336.7C378 334 407 343 436.2 352C465.3 361 494.7 370 523.8 377.2C553 384.3 582 389.7 611 378C640 366.3 669 337.7 698 331.3C727 325 756 341 785.2 359.8C814.3 378.7 843.7 400.3 872.8 408.5C902 416.7 931 411.3 945.5 408.7L960 406L960 339L945.5 339C931 339 902 339 872.8 326.5C843.7 314 814.3 289 785.2 275.5C756 262 727 260 698 270.7C669 281.3 640 304.7 611 309.2C582 313.7 553 299.3 523.8 293.2C494.7 287 465.3 289 436.2 289C407 289 378 287 349 293.2C320 299.3 291 313.7 262 314.7C233 315.7 204 303.3 174.8 309.7C145.7 316 116.3 341 87.2 343.7C58 346.3 29 326.7 14.5 316.8L0 307Z" fill="#c98474"></path><path d="M0 460L14.5 463.7C29 467.3 58 474.7 87.2 480C116.3 485.3 145.7 488.7 174.8 484.2C204 479.7 233 467.3 262 457.5C291 447.7 320 440.3 349 441.2C378 442 407 451 436.2 461.8C465.3 472.7 494.7 485.3 523.8 486.2C553 487 582 476 611 465.2C640 454.3 669 443.7 698 442C727 440.3 756 447.7 785.2 454.8C814.3 462 843.7 469 872.8 469C902 469 931 462 945.5 458.5L960 455L960 404L945.5 406.7C931 409.3 902 414.7 872.8 406.5C843.7 398.3 814.3 376.7 785.2 357.8C756 339 727 323 698 329.3C669 335.7 640 364.3 611 376C582 387.7 553 382.3 523.8 375.2C494.7 368 465.3 359 436.2 350C407 341 378 332 349 334.7C320 337.3 291 351.7 262 358C233 364.3 204 362.7 174.8 369C145.7 375.3 116.3 389.7 87.2 391.5C58 393.3 29 382.7 14.5 377.3L0 372Z" fill="#af7163"></path><path d="M0 541L14.5 541C29 541 58 541 87.2 541C116.3 541 145.7 541 174.8 541C204 541 233 541 262 541C291 541 320 541 349 541C378 541 407 541 436.2 541C465.3 541 494.7 541 523.8 541C553 541 582 541 611 541C640 541 669 541 698 541C727 541 756 541 785.2 541C814.3 541 843.7 541 872.8 541C902 541 931 541 945.5 541L960 541L960 453L945.5 456.5C931 460 902 467 872.8 467C843.7 467 814.3 460 785.2 452.8C756 445.7 727 438.3 698 440C669 441.7 640 452.3 611 463.2C582 474 553 485 523.8 484.2C494.7 483.3 465.3 470.7 436.2 459.8C407 449 378 440 349 439.2C320 438.3 291 445.7 262 455.5C233 465.3 204 477.7 174.8 482.2C145.7 486.7 116.3 483.3 87.2 478C58 472.7 29 465.3 14.5 461.7L0 458Z" fill="#965f52"></path></svg> -->
<svg id="visual" viewBox="0 0 1300 700" width="1300" height="700" xmlns="http://www.w3.org/2000/svg" xmlns:xlink="http://www.w3.org/1999/xlink" version="1.1"><rect x="0" y="0" width="1300" height="700" fill="#001220"></rect><g fill="none" stroke="#A7233A" stroke-width="2"><circle r="118" cx="811" cy="31"></circle><circle r="51" cx="925" cy="444"></circle><circle r="55" cx="465" cy="590"></circle><circle r="71" cx="192" cy="109"></circle><circle r="77" cx="1288" cy="330"></circle><circle r="104" cx="61" cy="398"></circle></g></svg>