<svg id="visual" viewBox="0 0 960 540" width="960" height="540" xmlns="http://www.w3.org/2000/svg" xmlns:xlink="http://www.w3.org/1999/xlink" version="1.1"><path d="M0 104L16 107.5C32 111 64 118 96 116.2C128 114.3 160 103.7 192 99.2C224 94.7 256 96.3 288 102.7C320 109 352 120 384 127.2C416 134.3 448 137.7 480 136.7C512 135.7 544 130.3 576 122.3C608 114.3 640 103.7 672 106.3C704 109 736 125 768 126.8C800 128.7 832 116.3 864 105.7C896 95 928 86 944 81.5L960 77L960 0L944 0C928 0 896 0 864 0C832 0 800 0 768 0C736 0 704 0 672 0C640 0 608 0 576 0C544 0 512 0 480 0C448 0 416 0 384 0C352 0 320 0 288 0C256 0 224 0 192 0C160 0 128 0 96 0C64 0 32 0 16 0L0 0Z" fill="#c98474"></path><path d="M0 179L16 187.2C32 195.3 64 211.7 96 210.8C128 210 160 192 192 184.8C224 177.7 256 181.3 288 187.7C320 194 352 203 384 210.2C416 217.3 448 222.7 480 219.8C512 217 544 206 576 193.3C608 180.7 640 166.3 672 171.8C704 177.3 736 202.7 768 207.2C800 211.7 832 195.3 864 186.3C896 177.3 928 175.7 944 174.8L960 174L960 75L944 79.5C928 84 896 93 864 103.7C832 114.3 800 126.7 768 124.8C736 123 704 107 672 104.3C640 101.7 608 112.3 576 120.3C544 128.3 512 133.7 480 134.7C448 135.7 416 132.3 384 125.2C352 118 320 107 288 100.7C256 94.3 224 92.7 192 97.2C160 101.7 128 112.3 96 114.2C64 116 32 109 16 105.5L0 102Z" fill="#db9c88"></path><path d="M0 320L16 324.5C32 329 64 338 96 342.5C128 347 160 347 192 349.7C224 352.3 256 357.7 288 365.7C320 373.7 352 384.3 384 382.5C416 380.7 448 366.3 480 355.5C512 344.7 544 337.3 576 326.5C608 315.7 640 301.3 672 308.7C704 316 736 345 768 360.3C800 375.7 832 377.3 864 368.3C896 359.3 928 339.7 944 329.8L960 320L960 172L944 172.8C928 173.7 896 175.3 864 184.3C832 193.3 800 209.7 768 205.2C736 200.7 704 175.3 672 169.8C640 164.3 608 178.7 576 191.3C544 204 512 215 480 217.8C448 220.7 416 215.3 384 208.2C352 201 320 192 288 185.7C256 179.3 224 175.7 192 182.8C160 190 128 208 96 208.8C64 209.7 32 193.3 16 185.2L0 177Z" fill="#edb49d"></path><path d="M0 541L16 541C32 541 64 541 96 541C128 541 160 541 192 541C224 541 256 541 288 541C320 541 352 541 384 541C416 541 448 541 480 541C512 541 544 541 576 541C608 541 640 541 672 541C704 541 736 541 768 541C800 541 832 541 864 541C896 541 928 541 944 541L960 541L960 318L944 327.8C928 337.7 896 357.3 864 366.3C832 375.3 800 373.7 768 358.3C736 343 704 314 672 306.7C640 299.3 608 313.7 576 324.5C544 335.3 512 342.7 480 353.5C448 364.3 416 378.7 384 380.5C352 382.3 320 371.7 288 363.7C256 355.7 224 350.3 192 347.7C160 345 128 345 96 340.5C64 336 32 327 16 322.5L0 318Z" fill="#ffccb3"></path></svg>